<svg width="720" height="360" xmlns="http://www.w3.org/2000/svg" xmlns:xlink="http://www.w3.org/1999/xlink" overflow="hidden"><defs><clipPath id="clip0"><rect x="0" y="0" width="1040" height="720"/></clipPath></defs><g clip-path="url(#clip0)"><rect x="0" y="0" width="1040" height="720" fill="#FFFFFF"/><path d="M406.65 219.5C336.981 260.196 294.5 334.804 294.5 414.5L520.5 414.5 406.65 219.5Z" stroke="#FFFFFF" stroke-width="3.33333" stroke-linejoin="round" stroke-miterlimit="10" fill="#DDDDDD" fill-rule="evenodd"/><path d="M633.5 219.087C598.796 199.545 559.86 188.5 520.923 188.5 481.141 188.5 442.204 199.545 407.5 219.087L520.923 414.5 633.5 219.087Z" stroke="#FFFFFF" stroke-width="3.33333" stroke-linejoin="round" stroke-miterlimit="10" fill="#C0C0C0" fill-rule="evenodd"/><path d="M634.424 610.5C704.047 569.773 746.5 495.106 746.5 414.5L521.5 414.5 634.424 610.5Z" stroke="#FFFFFF" stroke-width="3.33333" stroke-linejoin="round" stroke-miterlimit="10" fill="#DDDDDD" fill-rule="evenodd"/><path d="M295.5 415.349C295.5 495.106 337.981 569.773 407.65 610.5L521.5 414.5 295.5 415.349Z" stroke="#FFFFFF" stroke-width="3.33333" stroke-linejoin="round" stroke-miterlimit="10" fill="#DDDDDD" fill-rule="evenodd"/><path d="M745.5 414.5C745.5 334.804 703.047 260.196 633.425 219.5L520.5 414.5 745.5 414.5Z" stroke="#FFFFFF" stroke-width="3.33333" stroke-linejoin="round" stroke-miterlimit="10" fill="#DDDDDD" fill-rule="evenodd"/><path d="M406.5 610.028C441.358 629.496 480.466 639.654 519.575 639.654 559.534 640.5 598.642 629.496 633.5 610.028L520.425 414.5 406.5 610.028Z" stroke="#FFFFFF" stroke-width="3.33333" stroke-linejoin="round" stroke-miterlimit="10" fill="#DDDDDD" fill-rule="evenodd"/><path d="M400.641 222.5C335.982 267.432 300.5 330.393 300.5 410.5L526.5 410.5" stroke="#30373B" stroke-width="1.33333" stroke-linejoin="round" stroke-miterlimit="10" fill="none" fill-rule="evenodd"/><path d="M639.5 215.087C604.642 195.545 565.534 184.5 526.425 184.5 486.466 184.5 447.358 195.545 412.5 215.087L526.425 410.5 639.5 215.087Z" stroke="#30373B" stroke-width="1.33333" stroke-linejoin="round" stroke-miterlimit="10" fill="none" fill-rule="evenodd"/><path d="M300.67 424.387C306.558 502.812 342.714 565.185 411.574 605.624L525.995 410.783" stroke="#30373B" stroke-width="1.33333" stroke-linejoin="round" stroke-miterlimit="10" fill="none" fill-rule="evenodd"/><path d="M187.409 100.12C142.619 35.4748 79.8551 0 0 0L0 225.954" stroke="#30373B" stroke-width="1.33333" stroke-linejoin="round" stroke-miterlimit="10" fill="none" fill-rule="evenodd" transform="matrix(0.862302 -0.506394 -0.506394 -0.862302 640.286 604.336)"/><path d="M187.409 100.12C142.619 35.4748 79.8551 0 0 0" stroke="#30373B" stroke-width="1.33333" stroke-linejoin="round" stroke-miterlimit="10" fill="none" fill-rule="evenodd" transform="matrix(0.866025 0.5 0.5 -0.866025 412.267 605.552)"/><path d="M187 100.141C142.307 35.482 79.6807 0 0 0L0 226" stroke="#30373B" stroke-width="1.33333" stroke-linejoin="round" stroke-miterlimit="10" fill="none" fill-rule="evenodd" transform="matrix(-6.12323e-17 -1 -1 6.12323e-17 752.5 409.5)"/></g></svg>